<svg xmlns="http://www.w3.org/2000/svg" viewBox="0 0 330 330">
  <path d="M245.608 84.392c-5.856-5.857-15.355-5.858-21.213-.001-5.857 5.858-5.858 15.355 0 21.213L268.789 150H85.002c-8.284 0-15 6.716-15 15s6.716 15 15 15h183.785l-44.392 44.392c-5.858 5.858-5.858 15.355 0 21.213 2.929 2.929 6.768 4.393 10.607 4.393 3.839 0 7.678-1.464 10.606-4.393l69.998-69.998c5.858-5.857 5.858-15.355 0-21.213l-69.998-70.002z"/>
  <path d="M155 330c8.284 0 15-6.716 15-15s-6.716-15-15-15H40V30h115c8.284 0 15-6.716 15-15s-6.716-15-15-15H25c-8.284 0-15 6.716-15 15v300c0 8.284 6.716 15 15 15h130z"/>
</svg>
